<svg width="18" height="18" viewBox="0 0 18 18" fill="none" xmlns="http://www.w3.org/2000/svg">
  <defs>
    <mask id="wally-cube-cut-h" maskUnits="userSpaceOnUse" x="0" y="0" width="18" height="18">
      <rect x="0" y="0" width="18" height="18" fill="black"/>
      <polygon points="4.2,5.2 13.0,5.2 14.0,4.2 5.2,4.2" fill="white"/>
      <rect x="4.2" y="5.2" width="8.8" height="8.8" fill="white"/>
      <line x1="3.9" y1="7.5" x2="13.3" y2="7.7" stroke="black" stroke-width="0.35"/>
      <line x1="3.9" y1="9.9" x2="13.3" y2="9.7" stroke="black" stroke-width="0.35"/>
      <line x1="3.9" y1="12.0" x2="13.3" y2="12.1" stroke="black" stroke-width="0.35"/>
      <line x1="6.6" y1="5.2" x2="6.8" y2="7.5" stroke="black" stroke-width="0.3"/>
      <line x1="9.4" y1="7.7" x2="9.2" y2="9.9" stroke="black" stroke-width="0.3"/>
      <line x1="11.0" y1="9.8" x2="11.2" y2="12.0" stroke="black" stroke-width="0.3"/>
      <line x1="7.8" y1="12.1" x2="7.6" y2="14.3" stroke="black" stroke-width="0.3"/>
      <line x1="4.0" y1="5.2" x2="13.3" y2="5.2" stroke="black" stroke-width="0.3"/>
    </mask>
  </defs>
  <!-- Notched circle body (corner cut out for badge), from original -->
  <path d="M10.5867 17.3522C10.0727 17.4492 9.54226 17.5 9 17.5C4.30558 17.5 0.5 13.6944 0.5 9C0.5 4.30558 4.30558 0.5 9 0.5C13.6944 0.5 17.5 4.30558 17.5 9C17.5 9.54226 17.4492 10.0727 17.3522 10.5867C16.6511 10.2123 15.8503 10 15 10C12.2386 10 10 12.2386 10 15C10 15.8503 10.2123 16.6511 10.5867 17.3522Z" fill="#FFFFFF" stroke="#000000" stroke-width="0.6"/>
  <!-- Compacted trash cube -->
  <rect x="0" y="0" width="18" height="18" fill="#000000" mask="url(#wally-cube-cut-h)"/>
  <!-- Eye dot -->
  <circle cx="10.5" cy="3.3" r="0.5" fill="#000000"/>
  <!-- Highlight badge (green) -->
  <circle cx="15" cy="15" r="3" fill="#45B83B"/>
</svg>
